<mxfile host="65bd71144e">
    <diagram id="lEXBrJzxEkvyf8anEAot" name="第 1 页">
        <mxGraphModel dx="4236" dy="2076" grid="0" gridSize="10" guides="1" tooltips="1" connect="1" arrows="1" fold="1" page="0" pageScale="1" pageWidth="827" pageHeight="1169" math="0" shadow="0">
            <root>
                <mxCell id="0"/>
                <mxCell id="1" parent="0"/>
                <mxCell id="180" value="" style="rounded=0;whiteSpace=wrap;html=1;fillStyle=auto;strokeWidth=5;fontSize=27;fillColor=none;dashed=1;" parent="1" vertex="1">
                    <mxGeometry x="-790" y="-140" width="520" height="300" as="geometry"/>
                </mxCell>
                <mxCell id="303" style="edgeStyle=none;html=1;exitX=-0.024;exitY=0.418;exitDx=0;exitDy=0;exitPerimeter=0;entryX=0.5;entryY=0;entryDx=0;entryDy=0;entryPerimeter=0;strokeWidth=4;" parent="1" source="42" target="109" edge="1">
                    <mxGeometry relative="1" as="geometry"/>
                </mxCell>
                <mxCell id="42" value="" style="strokeWidth=5;html=1;shape=mxgraph.flowchart.annotation_1;align=left;pointerEvents=1;fontSize=18;rotation=-90;" parent="1" vertex="1">
                    <mxGeometry x="593.25" y="-431.25" width="57.5" height="355" as="geometry"/>
                </mxCell>
                <mxCell id="250" value="" style="edgeStyle=none;html=1;strokeWidth=5;fontSize=24;fontColor=#B3B3B3;" parent="1" source="89" target="198" edge="1">
                    <mxGeometry relative="1" as="geometry"/>
                </mxCell>
                <mxCell id="89" value="&lt;div style=&quot;&quot;&gt;&lt;b style=&quot;background-color: initial; font-size: 18px;&quot;&gt;将检测投影至世界系&lt;/b&gt;&lt;br&gt;&lt;/div&gt;" style="rounded=1;whiteSpace=wrap;html=1;absoluteArcSize=1;arcSize=14;strokeWidth=5;fontSize=24;fillColor=#647687;align=center;fillStyle=auto;fontColor=#ffffff;strokeColor=#314354;" parent="1" vertex="1">
                    <mxGeometry x="496.25" y="320" width="193.5" height="100" as="geometry"/>
                </mxCell>
                <mxCell id="129" style="edgeStyle=none;html=1;fontSize=20;strokeWidth=5;entryX=0.5;entryY=1;entryDx=0;entryDy=0;entryPerimeter=0;exitX=0.5;exitY=0;exitDx=0;exitDy=0;startArrow=none;exitPerimeter=0;" parent="1" source="280" target="173" edge="1">
                    <mxGeometry relative="1" as="geometry">
                        <mxPoint x="340" y="725" as="sourcePoint"/>
                        <mxPoint x="-155" as="targetPoint"/>
                        <Array as="points"/>
                    </mxGeometry>
                </mxCell>
                <mxCell id="306" style="edgeStyle=none;html=1;exitX=0.5;exitY=1;exitDx=0;exitDy=0;exitPerimeter=0;entryX=0.5;entryY=0;entryDx=0;entryDy=0;strokeWidth=4;" parent="1" source="109" target="152" edge="1">
                    <mxGeometry relative="1" as="geometry"/>
                </mxCell>
                <mxCell id="307" style="edgeStyle=none;html=1;exitX=0.5;exitY=1;exitDx=0;exitDy=0;exitPerimeter=0;entryX=0.5;entryY=0;entryDx=0;entryDy=0;strokeWidth=4;" parent="1" source="109" target="151" edge="1">
                    <mxGeometry relative="1" as="geometry">
                        <Array as="points">
                            <mxPoint x="593" y="-70"/>
                            <mxPoint x="231" y="-70"/>
                        </Array>
                    </mxGeometry>
                </mxCell>
                <mxCell id="308" style="edgeStyle=none;html=1;exitX=0.5;exitY=1;exitDx=0;exitDy=0;exitPerimeter=0;entryX=0.5;entryY=0;entryDx=0;entryDy=0;strokeWidth=4;" parent="1" source="109" target="153" edge="1">
                    <mxGeometry relative="1" as="geometry">
                        <Array as="points">
                            <mxPoint x="593" y="-70"/>
                            <mxPoint x="950" y="-70"/>
                        </Array>
                    </mxGeometry>
                </mxCell>
                <mxCell id="109" value="&lt;b&gt;匈牙利匹配&lt;/b&gt;" style="strokeWidth=2;html=1;shape=mxgraph.flowchart.terminator;whiteSpace=wrap;fontSize=18;fillColor=#e3c800;fontColor=#000000;strokeColor=#B09500;" parent="1" vertex="1">
                    <mxGeometry x="498" y="-180" width="190" height="80" as="geometry"/>
                </mxCell>
                <mxCell id="125" style="edgeStyle=none;html=1;exitX=0.5;exitY=1;exitDx=0;exitDy=0;entryX=0.5;entryY=0;entryDx=0;entryDy=0;fontSize=20;strokeWidth=5;entryPerimeter=0;" parent="1" target="145" edge="1">
                    <mxGeometry relative="1" as="geometry">
                        <mxPoint x="462.5" y="-380" as="sourcePoint"/>
                        <mxPoint x="462.5" y="-315" as="targetPoint"/>
                    </mxGeometry>
                </mxCell>
                <mxCell id="130" value="track Buffer" style="swimlane;fontSize=18;startSize=60;fillColor=#1ba1e2;strokeColor=#006EAF;fontColor=#ffffff;strokeWidth=5;" parent="1" vertex="1">
                    <mxGeometry x="-720" y="268.13" width="340" height="312.5" as="geometry">
                        <mxRectangle x="610" y="-800" width="140" height="50" as="alternateBounds"/>
                    </mxGeometry>
                </mxCell>
                <mxCell id="137" value="track" style="swimlane;childLayout=stackLayout;resizeParent=1;resizeParentMax=0;startSize=60;html=1;labelBackgroundColor=none;labelBorderColor=none;fontSize=18;fillColor=#647687;fontColor=#ffffff;strokeColor=#314354;strokeWidth=5;" parent="130" vertex="1">
                    <mxGeometry y="62.5" width="340" height="250" as="geometry">
                        <mxRectangle y="62.5" width="200" height="60" as="alternateBounds"/>
                    </mxGeometry>
                </mxCell>
                <mxCell id="138" value="&amp;nbsp;KF（3D）" style="swimlane;startSize=40;html=1;labelBackgroundColor=none;labelBorderColor=none;fontSize=18;fillColor=#6d8764;fontColor=#ffffff;strokeColor=#3A5431;strokeWidth=5;" parent="137" vertex="1">
                    <mxGeometry y="60" width="170" height="190" as="geometry">
                        <mxRectangle y="60" width="50" height="180" as="alternateBounds"/>
                    </mxGeometry>
                </mxCell>
                <mxCell id="143" value="&lt;ul&gt;&lt;li&gt;三维预测&lt;/li&gt;&lt;li&gt;反投影&lt;/li&gt;&lt;li style=&quot;&quot;&gt;KF Track&lt;/li&gt;&lt;/ul&gt;" style="rounded=0;whiteSpace=wrap;html=1;fillStyle=auto;fontSize=20;fillColor=#76608a;fontColor=#ffffff;strokeColor=#432D57;strokeWidth=4;align=left;" parent="138" vertex="1">
                    <mxGeometry y="40" width="170" height="150" as="geometry"/>
                </mxCell>
                <mxCell id="140" value="CSRT（2D）" style="swimlane;startSize=40;html=1;labelBackgroundColor=none;labelBorderColor=none;fontSize=18;fillColor=#6d8764;fontColor=#ffffff;strokeColor=#3A5431;strokeWidth=6;" parent="137" vertex="1">
                    <mxGeometry x="170" y="60" width="170" height="190" as="geometry"/>
                </mxCell>
                <mxCell id="144" value="&lt;ul&gt;&lt;li&gt;&lt;span style=&quot;background-color: initial;&quot;&gt;目标位置估计&lt;/span&gt;&lt;/li&gt;&lt;li&gt;&lt;span style=&quot;background-color: initial;&quot;&gt;CSRT Track&lt;/span&gt;&lt;/li&gt;&lt;/ul&gt;" style="rounded=0;whiteSpace=wrap;html=1;fillStyle=auto;fontSize=20;fillColor=#76608a;fontColor=#ffffff;strokeColor=#432D57;strokeWidth=4;align=left;" parent="140" vertex="1">
                    <mxGeometry y="40" width="170" height="150" as="geometry"/>
                </mxCell>
                <mxCell id="142" value="" style="swimlane;startSize=20;html=1;labelBackgroundColor=none;labelBorderColor=none;fontSize=18;" parent="137" vertex="1">
                    <mxGeometry x="340" y="60" height="190" as="geometry"/>
                </mxCell>
                <mxCell id="145" value="&lt;b&gt;tracks&lt;/b&gt;" style="strokeWidth=2;html=1;shape=mxgraph.flowchart.multi-document;whiteSpace=wrap;fillStyle=auto;fontSize=20;fillColor=#0050ef;strokeColor=#001DBC;fontColor=#ffffff;align=center;" parent="1" vertex="1">
                    <mxGeometry x="394" y="-340" width="137" height="100" as="geometry"/>
                </mxCell>
                <mxCell id="148" value="&lt;b&gt;detections&lt;/b&gt;" style="strokeWidth=2;html=1;shape=mxgraph.flowchart.multi-document;whiteSpace=wrap;fillStyle=auto;fontSize=20;fillColor=#0050ef;strokeColor=#001DBC;fontColor=#ffffff;align=center;" parent="1" vertex="1">
                    <mxGeometry x="733" y="-340" width="130" height="100" as="geometry"/>
                </mxCell>
                <mxCell id="290" style="edgeStyle=none;html=1;exitX=0.5;exitY=1;exitDx=0;exitDy=0;entryX=0.5;entryY=0;entryDx=0;entryDy=0;strokeWidth=4;fontSize=20;" parent="1" source="151" target="83" edge="1">
                    <mxGeometry relative="1" as="geometry"/>
                </mxCell>
                <mxCell id="151" value="&lt;b style=&quot;font-size: 18px;&quot;&gt;new detection&lt;/b&gt;" style="shape=parallelogram;html=1;strokeWidth=5;perimeter=parallelogramPerimeter;whiteSpace=wrap;rounded=1;arcSize=12;size=0.23;fillStyle=auto;fontSize=16;fillColor=#647687;fontColor=#ffffff;strokeColor=#314354;" parent="1" vertex="1">
                    <mxGeometry x="130" y="-10" width="201" height="80" as="geometry"/>
                </mxCell>
                <mxCell id="267" value="" style="edgeStyle=none;html=1;strokeWidth=5;fontSize=24;fontColor=#B3B3B3;" parent="1" source="152" target="266" edge="1">
                    <mxGeometry relative="1" as="geometry"/>
                </mxCell>
                <mxCell id="152" value="&lt;b style=&quot;font-size: 18px;&quot;&gt;active track&lt;/b&gt;" style="shape=parallelogram;html=1;strokeWidth=5;perimeter=parallelogramPerimeter;whiteSpace=wrap;rounded=1;arcSize=12;size=0.23;fillStyle=auto;fontSize=16;fillColor=#647687;fontColor=#ffffff;strokeColor=#314354;" parent="1" vertex="1">
                    <mxGeometry x="492.5" y="-10" width="201" height="80" as="geometry"/>
                </mxCell>
                <mxCell id="305" style="edgeStyle=none;html=1;exitX=0.5;exitY=1;exitDx=0;exitDy=0;entryX=0.5;entryY=0;entryDx=0;entryDy=0;strokeWidth=4;" parent="1" source="153" target="186" edge="1">
                    <mxGeometry relative="1" as="geometry">
                        <mxPoint x="951.5100000000002" y="105" as="targetPoint"/>
                    </mxGeometry>
                </mxCell>
                <mxCell id="153" value="&lt;b style=&quot;font-size: 18px;&quot;&gt;inactive track&lt;/b&gt;" style="shape=parallelogram;html=1;strokeWidth=5;perimeter=parallelogramPerimeter;whiteSpace=wrap;rounded=1;arcSize=12;size=0.23;fillStyle=auto;fontSize=16;fillColor=#647687;fontColor=#ffffff;strokeColor=#314354;" parent="1" vertex="1">
                    <mxGeometry x="851.01" y="-5" width="201" height="80" as="geometry"/>
                </mxCell>
                <mxCell id="177" value="" style="edgeStyle=none;html=1;strokeWidth=5;fontSize=27;" parent="1" source="160" target="175" edge="1">
                    <mxGeometry relative="1" as="geometry"/>
                </mxCell>
                <mxCell id="160" value="&lt;b&gt;&lt;font style=&quot;font-size: 27px;&quot;&gt;start&lt;/font&gt;&lt;/b&gt;" style="strokeWidth=2;html=1;shape=mxgraph.flowchart.start_1;whiteSpace=wrap;fillStyle=auto;fontSize=16;fillColor=#6d8764;strokeColor=#3A5431;fontColor=#ffffff;" parent="1" vertex="1">
                    <mxGeometry x="-960" y="-15" width="160" height="90" as="geometry"/>
                </mxCell>
                <mxCell id="172" style="edgeStyle=none;html=1;exitX=1;exitY=0.5;exitDx=0;exitDy=0;strokeWidth=5;fontSize=27;entryX=0;entryY=0.5;entryDx=0;entryDy=0;entryPerimeter=0;" parent="1" source="161" target="173" edge="1">
                    <mxGeometry relative="1" as="geometry">
                        <mxPoint x="-260" y="-150" as="targetPoint"/>
                        <Array as="points"/>
                    </mxGeometry>
                </mxCell>
                <mxCell id="161" value="&lt;div style=&quot;&quot;&gt;&lt;ul&gt;&lt;li&gt;&lt;span style=&quot;background-color: initial;&quot;&gt;&lt;b&gt;&lt;font style=&quot;font-size: 14px;&quot;&gt;&amp;nbsp;&lt;/font&gt;&lt;font style=&quot;font-size: 16px;&quot;&gt;用检测初始化CSRT（训练模板）&lt;/font&gt;&lt;/b&gt;&lt;/span&gt;&lt;/li&gt;&lt;li&gt;&lt;span style=&quot;background-color: initial;&quot;&gt;&lt;font size=&quot;3&quot; style=&quot;&quot;&gt;&lt;b&gt;&amp;nbsp;将检测框中心点投影至世界系&lt;/b&gt;&lt;/font&gt;&lt;/span&gt;&lt;/li&gt;&lt;li&gt;&lt;span style=&quot;background-color: initial;&quot;&gt;&lt;font size=&quot;3&quot; style=&quot;&quot;&gt;&lt;b&gt;用检测的三维投影初始化KF&lt;/b&gt;&lt;/font&gt;&lt;/span&gt;&lt;/li&gt;&lt;li&gt;&lt;span style=&quot;background-color: initial;&quot;&gt;&lt;font size=&quot;3&quot; style=&quot;&quot;&gt;&lt;b&gt;设置track的age、hitStreak，ID&lt;/b&gt;&lt;/font&gt;&lt;/span&gt;&lt;/li&gt;&lt;li&gt;&lt;font size=&quot;3&quot; style=&quot;&quot;&gt;&lt;b&gt;CSRT和KF存入track中，将track存入buffer中&lt;/b&gt;&lt;/font&gt;&lt;/li&gt;&lt;/ul&gt;&lt;/div&gt;" style="rounded=1;whiteSpace=wrap;html=1;absoluteArcSize=1;arcSize=14;strokeWidth=5;fontSize=24;fillColor=#647687;align=left;fontColor=#ffffff;strokeColor=#314354;" parent="1" vertex="1">
                    <mxGeometry x="-590" y="-75" width="300" height="210" as="geometry"/>
                </mxCell>
                <mxCell id="174" style="edgeStyle=none;html=1;exitX=0.5;exitY=0;exitDx=0;exitDy=0;exitPerimeter=0;strokeWidth=5;fontSize=27;entryX=0;entryY=0.5;entryDx=0;entryDy=0;entryPerimeter=0;" parent="1" source="173" target="209" edge="1">
                    <mxGeometry relative="1" as="geometry">
                        <mxPoint x="-155" y="-380" as="targetPoint"/>
                        <Array as="points">
                            <mxPoint x="-155" y="-440"/>
                        </Array>
                    </mxGeometry>
                </mxCell>
                <mxCell id="173" value="&lt;b&gt;卡尔曼滤波预测&lt;/b&gt;" style="strokeWidth=2;html=1;shape=mxgraph.flowchart.terminator;whiteSpace=wrap;fontSize=18;fillColor=#e3c800;fontColor=#000000;strokeColor=#B09500;" parent="1" vertex="1">
                    <mxGeometry x="-235" y="-10" width="160" height="80" as="geometry"/>
                </mxCell>
                <mxCell id="178" value="" style="edgeStyle=none;html=1;strokeWidth=5;fontSize=27;" parent="1" source="175" target="161" edge="1">
                    <mxGeometry relative="1" as="geometry"/>
                </mxCell>
                <mxCell id="175" value="detection" style="strokeWidth=2;html=1;shape=mxgraph.flowchart.document2;whiteSpace=wrap;size=0.25;fillStyle=auto;strokeColor=#001DBC;fontSize=27;fillColor=#0050ef;fontColor=#ffffff;" parent="1" vertex="1">
                    <mxGeometry x="-760" y="-5" width="130" height="70" as="geometry"/>
                </mxCell>
                <mxCell id="179" value="&lt;b&gt;第一帧&lt;/b&gt;" style="text;html=1;align=center;verticalAlign=middle;resizable=0;points=[];autosize=1;strokeColor=none;fillColor=none;fontSize=27;" parent="1" vertex="1">
                    <mxGeometry x="-580" y="-135" width="100" height="50" as="geometry"/>
                </mxCell>
                <mxCell id="182" style="edgeStyle=none;html=1;entryX=0.5;entryY=0;entryDx=0;entryDy=0;entryPerimeter=0;strokeWidth=5;fontSize=27;" parent="1" source="181" target="148" edge="1">
                    <mxGeometry relative="1" as="geometry"/>
                </mxCell>
                <mxCell id="181" value="&lt;b&gt;YOLO&lt;/b&gt;" style="strokeWidth=2;html=1;shape=mxgraph.flowchart.terminator;whiteSpace=wrap;fontSize=18;fillColor=#e3c800;fontColor=#000000;strokeColor=#B09500;" parent="1" vertex="1">
                    <mxGeometry x="715.5" y="-480" width="165" height="80" as="geometry"/>
                </mxCell>
                <mxCell id="309" style="edgeStyle=none;html=1;exitX=0.5;exitY=1;exitDx=0;exitDy=0;entryX=1;entryY=0.5;entryDx=0;entryDy=0;strokeWidth=4;" parent="1" source="186" target="199" edge="1">
                    <mxGeometry relative="1" as="geometry">
                        <Array as="points">
                            <mxPoint x="950" y="695"/>
                        </Array>
                    </mxGeometry>
                </mxCell>
                <mxCell id="186" value="&lt;ul style=&quot;color: rgb(240, 240, 240); font-size: 16px;&quot;&gt;&lt;li&gt;&lt;b&gt;age + 1&lt;/b&gt;&lt;/li&gt;&lt;li&gt;&lt;b&gt;hitStreak 重置&lt;/b&gt;&lt;/li&gt;&lt;li&gt;&lt;b&gt;不更新KF&lt;/b&gt;&lt;/li&gt;&lt;/ul&gt;" style="rounded=0;whiteSpace=wrap;html=1;fillStyle=auto;strokeColor=#314354;strokeWidth=4;fontSize=27;fillColor=#647687;fontColor=#ffffff;align=left;container=0;" parent="1" vertex="1">
                    <mxGeometry x="863.76" y="250" width="175.49" height="100" as="geometry"/>
                </mxCell>
                <mxCell id="304" style="edgeStyle=none;html=1;exitX=0.5;exitY=1;exitDx=0;exitDy=0;exitPerimeter=0;entryX=0.5;entryY=0;entryDx=0;entryDy=0;strokeWidth=4;" parent="1" source="198" target="199" edge="1">
                    <mxGeometry relative="1" as="geometry"/>
                </mxCell>
                <mxCell id="198" value="&lt;b&gt;卡尔曼滤波更新&lt;/b&gt;" style="strokeWidth=2;html=1;shape=mxgraph.flowchart.terminator;whiteSpace=wrap;fontSize=18;fillColor=#e3c800;fontColor=#000000;strokeColor=#B09500;" parent="1" vertex="1">
                    <mxGeometry x="498" y="490" width="191" height="80" as="geometry"/>
                </mxCell>
                <mxCell id="199" value="&lt;div style=&quot;&quot;&gt;&lt;b style=&quot;text-align: left; background-color: initial;&quot;&gt;&lt;font style=&quot;font-size: 18px;&quot;&gt;删除age大于maxAge的Track&lt;/font&gt;&lt;/b&gt;&lt;br&gt;&lt;/div&gt;" style="rounded=1;whiteSpace=wrap;html=1;absoluteArcSize=1;arcSize=14;strokeWidth=5;fontSize=24;fillColor=#647687;align=center;fillStyle=auto;fontColor=#ffffff;strokeColor=#314354;" parent="1" vertex="1">
                    <mxGeometry x="468.5" y="650" width="250" height="90" as="geometry"/>
                </mxCell>
                <mxCell id="212" value="" style="edgeStyle=none;html=1;strokeWidth=5;fontSize=18;entryX=0;entryY=0.25;entryDx=0;entryDy=0;" parent="1" source="209" target="214" edge="1">
                    <mxGeometry relative="1" as="geometry">
                        <mxPoint x="203.75" y="-440" as="targetPoint"/>
                    </mxGeometry>
                </mxCell>
                <mxCell id="209" value="&lt;b&gt;CSRT更新&lt;/b&gt;" style="strokeWidth=2;html=1;shape=mxgraph.flowchart.terminator;whiteSpace=wrap;fontSize=18;fillColor=#e3c800;fontColor=#000000;strokeColor=#B09500;" parent="1" vertex="1">
                    <mxGeometry x="-50" y="-480" width="165" height="80" as="geometry"/>
                </mxCell>
                <mxCell id="218" value="" style="group" parent="1" vertex="1" connectable="0">
                    <mxGeometry x="340" y="-500" width="250" height="110" as="geometry"/>
                </mxCell>
                <mxCell id="214" value="&lt;div style=&quot;text-align: center;&quot;&gt;&lt;b style=&quot;background-color: initial; color: rgb(240, 240, 240); font-size: 16px;&quot;&gt;用当前帧CSRT的跟踪&lt;/b&gt;&lt;b style=&quot;background-color: initial; color: rgb(240, 240, 240); font-size: 16px;&quot;&gt;结果匹配&lt;/b&gt;&lt;/div&gt;" style="rounded=0;whiteSpace=wrap;html=1;fillStyle=auto;strokeColor=#314354;strokeWidth=4;fontSize=27;fillColor=#647687;fontColor=#ffffff;align=left;container=0;" parent="218" vertex="1">
                    <mxGeometry y="40" width="120" height="70" as="geometry"/>
                </mxCell>
                <mxCell id="215" value="&lt;div style=&quot;text-align: center;&quot;&gt;&lt;span style=&quot;font-size: 17px;&quot;&gt;&lt;b&gt;用上一帧CSRT的跟踪结果匹配&lt;/b&gt;&lt;/span&gt;&lt;/div&gt;" style="rounded=0;whiteSpace=wrap;html=1;fillStyle=auto;strokeColor=#314354;strokeWidth=4;fontSize=27;fillColor=#647687;fontColor=#ffffff;align=left;container=0;" parent="218" vertex="1">
                    <mxGeometry x="128" y="40" width="130" height="70" as="geometry"/>
                </mxCell>
                <mxCell id="216" value="&lt;b style=&quot;font-size: 16px;&quot;&gt;未达到PSR阈值&lt;/b&gt;" style="rounded=0;whiteSpace=wrap;html=1;fillStyle=auto;strokeColor=#3A5431;strokeWidth=4;fontSize=27;fillColor=#6d8764;fontColor=#ffffff;container=0;" parent="218" vertex="1">
                    <mxGeometry x="128" width="130" height="40" as="geometry"/>
                </mxCell>
                <mxCell id="217" value="&lt;b style=&quot;font-size: 16px;&quot;&gt;达到PSR阈值&lt;/b&gt;" style="rounded=0;whiteSpace=wrap;html=1;fillStyle=auto;strokeColor=#3A5431;strokeWidth=4;fontSize=27;fillColor=#6d8764;fontColor=#ffffff;container=0;" parent="218" vertex="1">
                    <mxGeometry width="120" height="40" as="geometry"/>
                </mxCell>
                <mxCell id="219" value="将卡尔曼滤波的预测反投影至图像系，生成搜索区域" style="rounded=1;whiteSpace=wrap;absoluteArcSize=1;arcSize=14;strokeWidth=2;fontSize=20;fillColor=#647687;align=center;fillStyle=auto;fontColor=#ffffff;strokeColor=#314354;labelPosition=center;verticalLabelPosition=middle;verticalAlign=middle;fontStyle=1" parent="1" vertex="1">
                    <mxGeometry x="-235" y="-270" width="160" height="120" as="geometry"/>
                </mxCell>
                <mxCell id="220" value="&lt;font color=&quot;#ff0000&quot; style=&quot;font-size: 24px;&quot;&gt;P1&lt;/font&gt;" style="text;html=1;align=center;verticalAlign=middle;resizable=0;points=[];autosize=1;strokeColor=none;fillColor=none;" parent="1" vertex="1">
                    <mxGeometry x="-555" y="-190" width="50" height="40" as="geometry"/>
                </mxCell>
                <mxCell id="221" value="&lt;font color=&quot;#ff0000&quot; style=&quot;font-size: 24px;&quot;&gt;P2&lt;/font&gt;" style="text;html=1;align=center;verticalAlign=middle;resizable=0;points=[];autosize=1;strokeColor=none;fillColor=none;" parent="1" vertex="1">
                    <mxGeometry x="-125" y="-55" width="50" height="40" as="geometry"/>
                </mxCell>
                <mxCell id="222" value="&lt;font color=&quot;#ff0000&quot; style=&quot;font-size: 24px;&quot;&gt;P3&lt;/font&gt;" style="text;html=1;align=center;verticalAlign=middle;resizable=0;points=[];autosize=1;strokeColor=none;fillColor=none;" parent="1" vertex="1">
                    <mxGeometry x="-125" y="-320" width="50" height="40" as="geometry"/>
                </mxCell>
                <mxCell id="223" value="&lt;font color=&quot;#ff0000&quot; style=&quot;font-size: 24px;&quot;&gt;P4&lt;/font&gt;" style="text;html=1;align=center;verticalAlign=middle;resizable=0;points=[];autosize=1;strokeColor=none;fillColor=none;" parent="1" vertex="1">
                    <mxGeometry x="7.5" y="-520" width="50" height="40" as="geometry"/>
                </mxCell>
                <mxCell id="224" value="&lt;font color=&quot;#ff0000&quot; style=&quot;font-size: 24px;&quot;&gt;P5&lt;/font&gt;" style="text;html=1;align=center;verticalAlign=middle;resizable=0;points=[];autosize=1;strokeColor=none;fillColor=none;" parent="1" vertex="1">
                    <mxGeometry x="553.88" y="-540" width="50" height="40" as="geometry"/>
                </mxCell>
                <mxCell id="226" value="&lt;font color=&quot;#ff0000&quot; style=&quot;font-size: 24px;&quot;&gt;P6&lt;/font&gt;" style="text;html=1;align=center;verticalAlign=middle;resizable=0;points=[];autosize=1;strokeColor=none;fillColor=none;" parent="1" vertex="1">
                    <mxGeometry x="710" y="-160" width="50" height="40" as="geometry"/>
                </mxCell>
                <mxCell id="227" value="&lt;font color=&quot;#ff0000&quot; style=&quot;font-size: 24px;&quot;&gt;P8&lt;/font&gt;" style="text;html=1;align=center;verticalAlign=middle;resizable=0;points=[];autosize=1;strokeColor=none;fillColor=none;" parent="1" vertex="1">
                    <mxGeometry x="650.75" y="100" width="50" height="40" as="geometry"/>
                </mxCell>
                <mxCell id="228" value="&lt;font color=&quot;#ff0000&quot; style=&quot;font-size: 24px;&quot;&gt;P9&lt;/font&gt;" style="text;html=1;align=center;verticalAlign=middle;resizable=0;points=[];autosize=1;strokeColor=none;fillColor=none;" parent="1" vertex="1">
                    <mxGeometry x="989.25" y="210" width="50" height="40" as="geometry"/>
                </mxCell>
                <mxCell id="229" value="&lt;font color=&quot;#ff0000&quot; style=&quot;font-size: 24px;&quot;&gt;P10&lt;/font&gt;" style="text;html=1;align=center;verticalAlign=middle;resizable=0;points=[];autosize=1;strokeColor=none;fillColor=none;" parent="1" vertex="1">
                    <mxGeometry x="623.5" y="450" width="70" height="40" as="geometry"/>
                </mxCell>
                <mxCell id="230" value="&lt;font color=&quot;#ff0000&quot; style=&quot;font-size: 24px;&quot;&gt;P11&lt;/font&gt;" style="text;html=1;align=center;verticalAlign=middle;resizable=0;points=[];autosize=1;strokeColor=none;fillColor=none;" parent="1" vertex="1">
                    <mxGeometry x="630" y="610" width="60" height="40" as="geometry"/>
                </mxCell>
                <mxCell id="231" value="&lt;font color=&quot;#ff0000&quot; style=&quot;font-size: 24px;&quot;&gt;P0&lt;/font&gt;" style="text;html=1;align=center;verticalAlign=middle;resizable=0;points=[];autosize=1;strokeColor=none;fillColor=none;" parent="1" vertex="1">
                    <mxGeometry x="820" y="-390" width="50" height="40" as="geometry"/>
                </mxCell>
                <mxCell id="268" value="" style="edgeStyle=none;html=1;strokeWidth=5;fontSize=24;fontColor=#B3B3B3;entryX=0.5;entryY=0;entryDx=0;entryDy=0;" parent="1" source="266" target="89" edge="1">
                    <mxGeometry relative="1" as="geometry">
                        <mxPoint x="562.1516000000001" y="230" as="targetPoint"/>
                    </mxGeometry>
                </mxCell>
                <mxCell id="266" value="&lt;div style=&quot;&quot;&gt;&lt;b style=&quot;background-color: initial;&quot;&gt;&lt;font style=&quot;&quot;&gt;&lt;font style=&quot;font-size: 18px;&quot; color=&quot;#f0f0f0&quot;&gt;hitStreak + 1&lt;/font&gt;&lt;/font&gt;&lt;/b&gt;&lt;/div&gt;&lt;div style=&quot;&quot;&gt;&lt;b style=&quot;background-color: initial;&quot;&gt;&lt;font style=&quot;&quot;&gt;&lt;font style=&quot;font-size: 18px;&quot; color=&quot;#f0f0f0&quot;&gt;age重置&lt;/font&gt;&lt;/font&gt;&lt;/b&gt;&lt;br&gt;&lt;/div&gt;" style="rounded=0;whiteSpace=wrap;html=1;fillStyle=auto;strokeColor=#314354;strokeWidth=4;fontSize=27;fillColor=#647687;fontColor=#ffffff;align=center;container=0;" parent="1" vertex="1">
                    <mxGeometry x="489.37" y="150" width="207.25" height="100" as="geometry"/>
                </mxCell>
                <mxCell id="270" value="" style="group" parent="1" vertex="1" connectable="0">
                    <mxGeometry x="114" y="160" width="253.5" height="300" as="geometry"/>
                </mxCell>
                <mxCell id="83" value="&lt;div style=&quot;&quot;&gt;&lt;ul&gt;&lt;li&gt;&lt;span style=&quot;background-color: initial;&quot;&gt;&lt;b&gt;&lt;font style=&quot;font-size: 14px;&quot;&gt;&amp;nbsp;&lt;/font&gt;&lt;font style=&quot;font-size: 16px;&quot;&gt;用检测初始化CSRT&lt;/font&gt;&lt;/b&gt;&lt;/span&gt;&lt;/li&gt;&lt;li&gt;&lt;span style=&quot;background-color: initial;&quot;&gt;&lt;font size=&quot;3&quot; style=&quot;&quot;&gt;&lt;b&gt;&amp;nbsp;将检测框中心点投影至世界系&lt;/b&gt;&lt;/font&gt;&lt;/span&gt;&lt;/li&gt;&lt;li&gt;&lt;span style=&quot;background-color: initial;&quot;&gt;&lt;font size=&quot;3&quot; style=&quot;&quot;&gt;&lt;b&gt;初始化KF&lt;/b&gt;&lt;/font&gt;&lt;/span&gt;&lt;/li&gt;&lt;li&gt;&lt;span style=&quot;background-color: initial;&quot;&gt;&lt;font size=&quot;3&quot; style=&quot;&quot;&gt;&lt;b&gt;设置track的age，hit，ID&lt;/b&gt;&lt;/font&gt;&lt;/span&gt;&lt;/li&gt;&lt;li&gt;&lt;font size=&quot;3&quot; style=&quot;&quot;&gt;&lt;b&gt;CSRT和KF存入track中，将track存入buffer中&lt;/b&gt;&lt;/font&gt;&lt;/li&gt;&lt;/ul&gt;&lt;/div&gt;" style="rounded=1;whiteSpace=wrap;html=1;absoluteArcSize=1;arcSize=14;strokeWidth=5;fontSize=24;fillColor=#647687;align=left;fontColor=#ffffff;strokeColor=#314354;" parent="270" vertex="1">
                    <mxGeometry x="-10" y="-15" width="253.5" height="275" as="geometry"/>
                </mxCell>
                <mxCell id="278" style="edgeStyle=none;html=1;entryX=0.5;entryY=0;entryDx=0;entryDy=0;strokeWidth=5;fontSize=18;fontColor=#B3B3B3;exitX=0.5;exitY=1;exitDx=0;exitDy=0;" parent="1" source="83" target="199" edge="1">
                    <mxGeometry relative="1" as="geometry">
                        <Array as="points">
                            <mxPoint x="231" y="600"/>
                            <mxPoint x="594" y="600"/>
                        </Array>
                        <mxPoint x="58" y="480" as="sourcePoint"/>
                        <mxPoint x="502.5" y="648.7399999999998" as="targetPoint"/>
                    </mxGeometry>
                </mxCell>
                <mxCell id="281" value="" style="edgeStyle=none;html=1;fontSize=20;strokeWidth=5;entryX=0.5;entryY=1;entryDx=0;entryDy=0;entryPerimeter=0;exitX=0;exitY=0.5;exitDx=0;exitDy=0;endArrow=none;" parent="1" source="199" target="280" edge="1">
                    <mxGeometry relative="1" as="geometry">
                        <mxPoint x="315" y="695" as="sourcePoint"/>
                        <mxPoint x="-155" y="70" as="targetPoint"/>
                        <Array as="points">
                            <mxPoint x="-160" y="695"/>
                        </Array>
                    </mxGeometry>
                </mxCell>
                <mxCell id="299" style="edgeStyle=none;html=1;exitX=1;exitY=0.5;exitDx=0;exitDy=0;exitPerimeter=0;entryX=0;entryY=0.5;entryDx=0;entryDy=0;strokeWidth=4;" parent="1" source="280" target="287" edge="1">
                    <mxGeometry relative="1" as="geometry">
                        <Array as="points">
                            <mxPoint x="30" y="239"/>
                            <mxPoint x="30" y="-290"/>
                        </Array>
                    </mxGeometry>
                </mxCell>
                <mxCell id="280" value="&lt;b&gt;大于MinHits？&lt;/b&gt;" style="strokeWidth=2;html=1;shape=mxgraph.flowchart.decision;whiteSpace=wrap;fillStyle=auto;fontSize=20;fillColor=#76608a;fontColor=#ffffff;strokeColor=#432D57;" parent="1" vertex="1">
                    <mxGeometry x="-242.5" y="199.38" width="175" height="80" as="geometry"/>
                </mxCell>
                <mxCell id="282" value="&lt;font color=&quot;#33ff33&quot;&gt;Y&lt;/font&gt;" style="text;html=1;align=center;verticalAlign=middle;resizable=0;points=[];autosize=1;strokeColor=none;fillColor=none;fontSize=24;fontColor=#FF0000;" parent="1" vertex="1">
                    <mxGeometry x="-190" y="150" width="40" height="40" as="geometry"/>
                </mxCell>
                <mxCell id="284" value="N" style="text;html=1;align=center;verticalAlign=middle;resizable=0;points=[];autosize=1;strokeColor=none;fillColor=none;fontSize=24;fontColor=#33FF33;" parent="1" vertex="1">
                    <mxGeometry x="-10" y="150" width="40" height="40" as="geometry"/>
                </mxCell>
                <mxCell id="225" value="&lt;font color=&quot;#ff0000&quot; style=&quot;font-size: 24px;&quot;&gt;P7&lt;/font&gt;" style="text;html=1;align=center;verticalAlign=middle;resizable=0;points=[];autosize=1;strokeColor=none;fillColor=none;" parent="1" vertex="1">
                    <mxGeometry x="309.99666666666667" y="100" width="50" height="40" as="geometry"/>
                </mxCell>
                <mxCell id="293" style="edgeStyle=none;html=1;exitX=0.5;exitY=0;exitDx=0;exitDy=0;exitPerimeter=0;entryX=0.5;entryY=0;entryDx=0;entryDy=0;strokeWidth=4;" parent="1" source="291" target="216" edge="1">
                    <mxGeometry relative="1" as="geometry">
                        <Array as="points">
                            <mxPoint x="227" y="-540"/>
                            <mxPoint x="533" y="-540"/>
                        </Array>
                    </mxGeometry>
                </mxCell>
                <mxCell id="291" value="&lt;b&gt;大于PSR？&lt;/b&gt;" style="strokeWidth=2;html=1;shape=mxgraph.flowchart.decision;whiteSpace=wrap;fillStyle=auto;fontSize=20;fillColor=#76608a;fontColor=#ffffff;strokeColor=#432D57;" parent="1" vertex="1">
                    <mxGeometry x="151.5" y="-480" width="150" height="80" as="geometry"/>
                </mxCell>
                <mxCell id="292" value="&lt;font color=&quot;#33ff33&quot;&gt;Y&lt;/font&gt;" style="text;html=1;align=center;verticalAlign=middle;resizable=0;points=[];autosize=1;strokeColor=none;fillColor=none;fontSize=24;fontColor=#FF0000;" parent="1" vertex="1">
                    <mxGeometry x="290" y="-480" width="40" height="40" as="geometry"/>
                </mxCell>
                <mxCell id="295" value="N" style="text;html=1;align=center;verticalAlign=middle;resizable=0;points=[];autosize=1;strokeColor=none;fillColor=none;fontSize=24;fontColor=#33FF33;" parent="1" vertex="1">
                    <mxGeometry x="360" y="-580" width="40" height="40" as="geometry"/>
                </mxCell>
                <mxCell id="300" style="edgeStyle=none;html=1;exitX=1;exitY=0.5;exitDx=0;exitDy=0;entryX=0;entryY=0.5;entryDx=0;entryDy=0;entryPerimeter=0;strokeWidth=4;" parent="1" source="287" target="145" edge="1">
                    <mxGeometry relative="1" as="geometry"/>
                </mxCell>
                <mxCell id="287" value="上一帧CSRT的跟踪结果" style="rounded=1;whiteSpace=wrap;absoluteArcSize=1;arcSize=14;strokeWidth=2;fontSize=20;fillColor=#647687;align=center;fillStyle=auto;fontColor=#ffffff;strokeColor=#314354;labelPosition=center;verticalLabelPosition=middle;verticalAlign=middle;fontStyle=1" parent="1" vertex="1">
                    <mxGeometry x="115" y="-325" width="127.5" height="70" as="geometry"/>
                </mxCell>
            </root>
        </mxGraphModel>
    </diagram>
</mxfile>